<svg width="431" height="94" viewBox="0 0 431 94" fill="none" xmlns="http://www.w3.org/2000/svg">
<path fill-rule="evenodd" clip-rule="evenodd" d="M69.8759 17.9536C65.9301 14.51 61.9126 13.5056 56.6754 13.5056C50.5056 13.5056 42.327 16.2318 42.327 24.1234C42.327 31.8715 50.0034 34.1673 56.3884 34.6695C61.1951 34.9564 63.1322 35.8891 63.1322 38.2566C63.1322 40.7675 60.1908 42.4176 56.9624 42.3458C53.1601 42.2741 47.6359 40.2653 45.2684 37.6109L41.1074 43.6372C46.0576 48.8026 51.4382 49.7353 56.8189 49.7353C66.504 49.7353 71.4542 44.5698 71.4542 38.5435C71.4542 29.5041 63.3474 28.0692 56.8906 27.6388C52.5144 27.3518 50.5773 26.1322 50.5773 23.9082C50.5773 21.7559 52.8013 20.5363 56.7471 20.5363C59.9755 20.5363 62.7735 21.3255 65.141 23.5495L69.8759 17.9536Z" fill="#F89522"/>
<path fill-rule="evenodd" clip-rule="evenodd" d="M80.8533 5.75734V14.5099H74.54V21.7558H80.8533V36.4629C80.8533 44.9284 85.66 49.1612 93.0494 48.8742C95.6322 48.8025 97.5692 48.372 100.008 47.4394L97.6409 40.2652C96.4213 40.9109 94.9147 41.2696 93.5516 41.2696C90.8972 41.2696 89.1754 39.6913 89.1754 36.4629V21.7558H98.6453V14.5099H89.2471V4.82471L80.8533 5.75734Z" fill="#F89522"/>
<path fill-rule="evenodd" clip-rule="evenodd" d="M120.311 21.182C133.512 21.182 133.512 41.7719 120.311 41.7719C114.715 41.7719 110.267 37.8978 110.267 31.4411C110.196 24.9125 114.715 21.182 120.311 21.182ZM130.355 19.1732C128.418 15.8013 124.113 13.6491 119.522 13.6491C109.622 13.5773 101.802 19.7471 101.802 31.4411C101.802 43.3502 109.263 49.5917 119.307 49.52C123.109 49.4483 128.418 47.5112 130.355 43.4937L130.785 48.4439H138.749V14.4382H130.714L130.355 19.1732Z" fill="#F89522"/>
<path fill-rule="evenodd" clip-rule="evenodd" d="M144.057 14.4383V48.4439H152.45V30.5085C152.45 24.2669 156.54 21.8994 160.916 21.8994C163.642 21.8994 165.292 22.6886 167.014 24.1234L170.816 16.8058C168.951 14.9405 165.579 13.5774 162.064 13.5774C158.62 13.5774 155.105 14.2231 152.45 18.3841L151.805 14.4383H144.057Z" fill="#F89522"/>
<path fill-rule="evenodd" clip-rule="evenodd" d="M181.148 5.75734V14.5099H174.835V21.7558H181.148V36.4629C181.148 44.9284 185.955 49.1612 193.344 48.8742C195.927 48.8025 197.864 48.372 200.303 47.4394L197.936 40.2652C196.716 40.9109 195.21 41.2696 193.847 41.2696C191.192 41.2696 189.47 39.6913 189.47 36.4629V21.7558H198.94V14.5099H189.542V4.82471L181.148 5.75734Z" fill="#F89522"/>
<path fill-rule="evenodd" clip-rule="evenodd" d="M205.182 14.4382V32.302C205.182 42.848 211.136 49.0178 219.243 49.0178C223.978 49.0178 227.206 47.3678 230.794 43.9242L231.367 48.4439H238.9V14.4382H230.578V31.7998C230.578 37.0369 227.063 41.3414 221.897 41.3414C216.517 41.3414 213.719 37.3956 213.719 32.2302V14.4382H205.182Z" fill="#F89522"/>
<path fill-rule="evenodd" clip-rule="evenodd" d="M252.174 62.6484V44.426C254.613 48.1565 259.922 49.2327 263.509 49.2327C274.414 49.2327 280.655 41.3411 280.655 31.4407C280.655 21.4686 273.696 13.6487 263.222 13.6487C259.348 13.6487 254.828 15.2987 252.174 19.1011L251.6 14.4378H243.708V62.6484H252.174ZM262.576 41.1258C256.837 41.1258 252.891 36.8213 252.891 31.4407C252.891 26.1318 256.478 21.7555 262.576 21.7555C268.674 21.7555 272.261 26.1318 272.261 31.4407C272.19 36.8213 268.244 41.1258 262.576 41.1258Z" fill="#F89522"/>
<path fill-rule="evenodd" clip-rule="evenodd" d="M284.456 4.89638C284.456 11.4249 294.356 11.4249 294.356 4.89638C294.428 -1.63213 284.456 -1.63213 284.456 4.89638ZM293.639 48.4437H285.245V14.2946H293.639V48.4437Z" fill="#F89522"/>
<path fill-rule="evenodd" clip-rule="evenodd" d="M332.452 48.4438V30.5801C332.452 19.8906 326.067 13.8643 318.032 13.8643C313.727 13.8643 310.284 15.5861 306.84 18.9579L306.266 14.3664H298.733V48.4438H307.055V31.0823C307.055 25.9169 310.571 21.5406 315.736 21.5406C321.117 21.5406 323.915 25.4864 323.915 30.6519V48.4438H332.452Z" fill="#F89522"/>
<path fill-rule="evenodd" clip-rule="evenodd" d="M365.238 0.233367V19.0297C363.23 15.5144 357.634 13.5774 354.047 13.5774C344.146 13.5774 336.757 19.6754 336.757 31.3693C336.757 42.5611 344.29 49.1613 354.262 49.1613C358.423 49.1613 362.584 47.7982 365.238 43.709L365.812 48.3722H373.704V0.161621H365.238V0.233367ZM354.836 21.469C360.145 21.469 364.664 25.4865 364.664 31.3693C364.664 37.4674 360.145 41.3415 354.836 41.3415C349.455 41.3415 345.151 37.2522 345.151 31.3693C345.222 25.2713 349.455 21.469 354.836 21.469Z" fill="#F89522"/>
<path fill-rule="evenodd" clip-rule="evenodd" d="M379.874 4.89638C379.874 11.4249 389.774 11.4249 389.774 4.89638C389.774 -1.63213 379.874 -1.63213 379.874 4.89638Z" fill="#A4CD39"/>
<path d="M389.056 14.2947H380.662V48.4438H389.056V14.2947Z" fill="#3DC5F2"/>
<path fill-rule="evenodd" clip-rule="evenodd" d="M412.014 21.182C425.214 21.182 425.214 41.7719 412.014 41.7719C406.418 41.7719 401.97 37.8978 401.97 31.4411C401.97 24.9125 406.49 21.182 412.014 21.182ZM422.129 19.1732C420.192 15.8013 415.888 13.6491 411.296 13.6491C401.396 13.5773 393.576 19.7471 393.576 31.4411C393.576 43.3502 401.037 49.5917 411.081 49.52C414.884 49.4483 420.192 47.5112 422.129 43.4937L422.56 48.4439H430.452V14.4382H422.416L422.129 19.1732Z" fill="#F89522"/>
<path d="M389.128 53.6812H348.952V61.9315H389.128V53.6812Z" fill="#A4CD39"/>
<path d="M356.988 53.7529H348.81V94.0001H356.988V53.7529Z" fill="#A4CD39"/>
<path d="M356.987 85.7493H316.955V93.9996H356.987V85.7493Z" fill="#A4CD39"/>
<path d="M20.016 8.77075L17.8637 17.308H24.1053L26.2575 8.77075H33.8622L31.7817 17.3798H35.8709V23.98H30.1316L27.4771 34.3826H31.9969V41.0546H25.9706L24.1053 48.8027H16.3571L18.2224 41.0546H11.9092L10.0439 48.8027H2.43922L4.30451 41.0546H0V34.3826H6.02632L8.68077 23.9083H3.9458V17.3798H10.2591L12.3396 8.8425H20.016V8.77075ZM15.9267 23.4778L13.057 34.813H20.2312L23.1009 23.4778H15.9267Z" fill="#F89522"/>
</svg>
