<svg width="196" height="26" viewBox="0 0 196 26" fill="none" xmlns="http://www.w3.org/2000/svg">
<path d="M52.7828 24.7C54.2477 24.7 55.5672 24.3103 56.7413 23.5309C57.9154 22.7514 58.8525 21.6756 59.5526 20.3034C60.2528 18.9312 60.6029 17.3449 60.6029 15.5445C60.6029 13.7442 60.2528 12.1634 59.5526 10.8021C58.8525 9.44089 57.9046 8.37056 56.709 7.59113C55.5134 6.81171 54.1615 6.422 52.6535 6.422C51.8995 6.422 51.1832 6.55373 50.5046 6.8172C49.826 7.08067 49.2282 7.41549 48.7112 7.82167C48.1942 8.22784 47.7849 8.63402 47.4833 9.0402L47.5802 8.91552V2.00893C47.5802 1.48998 47.4289 1.04815 47.1262 0.683435L47.0308 0.576333C46.6646 0.192111 46.2015 0 45.6413 0C45.0812 0 44.6181 0.192111 44.2518 0.576333C43.8856 0.960555 43.7025 1.43809 43.7025 2.00893V22.6911C43.7025 23.2839 43.8856 23.7669 44.2518 24.1401C44.6181 24.5134 45.0812 24.7 45.6413 24.7C46.2015 24.7 46.6646 24.5079 47.0308 24.1237C47.3971 23.7394 47.5802 23.2619 47.5802 22.6911V22.4888L47.6873 22.5963C47.8393 22.7443 48.0057 22.8917 48.1864 23.0385L48.3719 23.1851C48.9428 23.6242 49.6052 23.9864 50.3592 24.2719C51.1132 24.5573 51.9211 24.7 52.7828 24.7ZM52.1688 21.0773C51.2209 21.0773 50.3915 20.8358 49.6806 20.3528C48.9697 19.8698 48.415 19.2056 48.0164 18.3603C47.6179 17.515 47.4186 16.5764 47.4186 15.5445C47.4186 14.4907 47.6179 13.5521 48.0164 12.7287C48.415 11.9054 48.9697 11.2522 49.6806 10.7692C50.3915 10.2862 51.2209 10.0447 52.1688 10.0447C53.1167 10.0447 53.9407 10.2862 54.6409 10.7692C55.341 11.2522 55.8904 11.9054 56.2889 12.7287C56.6874 13.5521 56.8867 14.4907 56.8867 15.5445C56.8867 16.5764 56.6874 17.515 56.2889 18.3603C55.8904 19.2056 55.341 19.8698 54.6409 20.3528C53.9407 20.8358 53.1167 21.0773 52.1688 21.0773ZM66.064 24.3707C66.6241 24.3707 67.0926 24.1786 67.4697 23.7943C67.8466 23.4101 68.0351 22.9326 68.0351 22.3617V2.00893C68.0351 1.43809 67.8574 0.960555 67.502 0.576333C67.1465 0.192111 66.6887 0 66.1286 0C65.5685 0 65.0999 0.192111 64.7229 0.576333C64.3459 0.960555 64.1574 1.43809 64.1574 2.00893V22.3617C64.1574 22.9326 64.3405 23.4101 64.7068 23.7943C65.073 24.1786 65.5254 24.3707 66.064 24.3707ZM74.2395 4.61067C74.972 4.61067 75.4998 4.4954 75.8229 4.26487C76.146 4.03433 76.3076 3.60071 76.3076 2.964V2.33827C76.3076 1.72351 76.1568 1.29538 75.8552 1.05387C75.5536 0.812356 75.0258 0.6916 74.2718 0.6916C73.5824 0.6916 73.0708 0.806867 72.7369 1.0374C72.403 1.26793 72.236 1.70156 72.236 2.33827V2.964C72.236 3.57876 72.3868 4.00689 72.6884 4.2484C72.99 4.48991 73.507 4.61067 74.2395 4.61067ZM74.2718 24.3707C74.8319 24.3707 75.2951 24.1786 75.6613 23.7943C76.0275 23.4101 76.2107 22.9326 76.2107 22.3617V8.76027C76.2107 8.18942 76.0275 7.71189 75.6613 7.32767C75.2951 6.94344 74.8319 6.75133 74.2718 6.75133C73.7117 6.75133 73.2485 6.94344 72.8823 7.32767C72.5161 7.71189 72.333 8.18942 72.333 8.76027V22.3617C72.333 22.9326 72.5161 23.4101 72.8823 23.7943C73.2485 24.1786 73.7117 24.3707 74.2718 24.3707ZM93.3049 24.3707C93.8651 24.3707 94.3282 24.1786 94.6945 23.7943C95.0607 23.4101 95.2438 22.9326 95.2438 22.3617V13.9308C95.2438 12.5476 95.0876 11.2906 94.7752 10.1599C94.4629 9.02922 93.892 8.12356 93.0626 7.44293C92.2332 6.76231 91.0214 6.422 89.4272 6.422C88.6948 6.422 88.0162 6.53727 87.3914 6.7678C86.7667 6.99833 86.2066 7.30022 85.7111 7.67347C85.2156 8.04671 84.7847 8.4474 84.4185 8.87553C84.3139 8.99786 84.2163 9.11794 84.1257 9.23578L84.063 9.32013V8.76027C84.063 8.24132 83.9117 7.79948 83.609 7.43477L83.5137 7.32767C83.1475 6.94344 82.6843 6.75133 82.1242 6.75133C81.5641 6.75133 81.1009 6.94344 80.7347 7.32767C80.3684 7.71189 80.1853 8.18942 80.1853 8.76027V22.3617C80.1853 22.9326 80.3684 23.4101 80.7347 23.7943C81.1009 24.1786 81.5641 24.3707 82.1242 24.3707C82.6843 24.3707 83.1475 24.1786 83.5137 23.7943C83.8799 23.4101 84.063 22.9326 84.063 22.3617V13.9308C84.063 13.2063 84.2192 12.5531 84.5316 11.9713C84.844 11.3894 85.2964 10.9229 85.8888 10.5716C86.4812 10.2203 87.2083 10.0447 88.07 10.0447C88.9533 10.0447 89.6319 10.2203 90.1058 10.5716C90.5798 10.9229 90.9083 11.3894 91.0914 11.9713C91.2745 12.5531 91.3661 13.2063 91.3661 13.9308V22.3617C91.3661 22.9326 91.5492 23.4101 91.9154 23.7943C92.2816 24.1786 92.7448 24.3707 93.3049 24.3707ZM101.707 24.3707C102.267 24.3707 102.73 24.1786 103.096 23.7943C103.462 23.4101 103.646 22.9326 103.646 22.3617V18.897L105.236 17.4056L111.045 23.6791C111.401 24.0816 111.829 24.2996 112.329 24.3332L112.467 24.3377C112.898 24.3377 113.334 24.1566 113.776 23.7943C114.218 23.4321 114.438 22.9655 114.438 22.3947C114.438 21.8458 114.234 21.3518 113.825 20.9127L108.178 14.6459L113.049 10.0776C113.526 9.652 113.783 9.19834 113.82 8.71661L113.825 8.5956C113.825 8.2004 113.641 7.79422 113.275 7.37707C112.909 6.95991 112.478 6.75133 111.983 6.75133C111.444 6.75133 110.97 6.95991 110.561 7.37707L103.646 14.1788V2.00893C103.646 1.48998 103.494 1.04815 103.192 0.683435L103.096 0.576333C102.73 0.192111 102.267 0 101.707 0C101.147 0 100.683 0.192111 100.317 0.576333C99.9509 0.960555 99.7678 1.43809 99.7678 2.00893V22.3617C99.7678 22.9326 99.9509 23.4101 100.317 23.7943C100.683 24.1786 101.147 24.3707 101.707 24.3707ZM123.81 24.7C124.822 24.7 125.813 24.4969 126.783 24.0907C127.752 23.6846 128.56 23.0863 129.206 22.2959C129.852 21.5055 130.176 20.5504 130.176 19.4307C130.176 18.4646 130.003 17.6687 129.659 17.043C129.314 16.4173 128.861 15.9068 128.301 15.5116C127.741 15.1164 127.127 14.798 126.459 14.5565C125.792 14.315 125.135 14.1064 124.488 13.9308C123.863 13.7552 123.276 13.574 122.727 13.3874C122.178 13.2008 121.742 12.9593 121.418 12.6629C121.095 12.3665 120.934 11.9658 120.934 11.4608C120.934 10.9119 121.074 10.5112 121.354 10.2587C121.634 10.0062 121.962 9.84158 122.339 9.76473C122.716 9.68789 123.066 9.64947 123.39 9.64947C124.187 9.64947 124.892 9.79218 125.506 10.0776C126.12 10.363 126.61 10.7472 126.976 11.2303C127.257 11.4937 127.612 11.6419 128.043 11.6749C128.474 11.7078 128.851 11.5925 129.174 11.3291C129.626 10.9558 129.831 10.5387 129.788 10.0776C129.745 9.61653 129.605 9.22133 129.368 8.892C128.915 8.2992 128.355 7.82167 127.687 7.4594C127.02 7.09713 126.319 6.83367 125.587 6.669C124.854 6.50433 124.154 6.422 123.486 6.422C122.431 6.422 121.424 6.63058 120.465 7.04773C119.506 7.46489 118.726 8.05769 118.122 8.82613C117.519 9.59458 117.218 10.5277 117.218 11.6255C117.218 12.5915 117.401 13.3929 117.767 14.0296C118.133 14.6663 118.607 15.1768 119.189 15.561C119.77 15.9452 120.411 16.2581 121.111 16.4996C121.812 16.7411 122.496 16.9607 123.163 17.1583C123.81 17.3339 124.397 17.5205 124.924 17.7181C125.452 17.9157 125.878 18.1572 126.201 18.4427C126.524 18.7281 126.686 19.1123 126.686 19.5953C126.686 20.1662 126.54 20.5888 126.249 20.8633C125.959 21.1377 125.619 21.3134 125.231 21.3902C124.844 21.467 124.488 21.5164 124.165 21.5384C123.131 21.5384 122.269 21.3628 121.58 21.0115C120.891 20.6602 120.234 20.1662 119.609 19.5295C119.243 19.1562 118.866 18.9531 118.478 18.9202C118.09 18.8873 117.724 18.9806 117.379 19.2001C116.841 19.5514 116.56 19.9686 116.539 20.4516C116.517 20.9346 116.614 21.3298 116.83 21.6372C117.67 22.7789 118.726 23.5748 119.997 24.0249C121.268 24.475 122.539 24.7 123.81 24.7ZM139.838 24.3707C140.592 24.3707 141.297 24.1731 141.954 23.7779C142.611 23.3827 142.94 22.8777 142.94 22.2629C142.94 21.758 142.816 21.3628 142.568 21.0773C142.32 20.7919 142.046 20.6492 141.744 20.6492C141.464 20.6492 141.216 20.6986 141.001 20.7974C140.785 20.8962 140.548 20.9456 140.29 20.9456C140.053 20.9456 139.832 20.9017 139.627 20.8139C139.423 20.726 139.261 20.5833 139.143 20.3857C139.024 20.1881 138.965 19.9356 138.965 19.6283V10.7033H141.259C141.725 10.7033 142.12 10.5655 142.446 10.2899L142.552 10.1929C142.897 9.85256 143.069 9.42991 143.069 8.92493C143.069 8.398 142.897 7.95889 142.552 7.6076C142.207 7.25631 141.776 7.08067 141.259 7.08067H138.965V4.97293C138.965 4.45398 138.818 4.01215 138.524 3.64743L138.432 3.54033C138.076 3.15611 137.619 2.964 137.059 2.964C136.498 2.964 136.03 3.15611 135.653 3.54033C135.276 3.92456 135.087 4.40209 135.087 4.97293V7.08067H133.601C133.136 7.08067 132.74 7.21849 132.414 7.49414L132.308 7.59113C131.964 7.93144 131.791 8.35409 131.791 8.85907C131.791 9.386 131.964 9.82511 132.308 10.1764C132.653 10.5277 133.084 10.7033 133.601 10.7033H135.087V19.7929C135.087 20.786 135.225 21.5826 135.5 22.1828L135.572 22.3288C135.895 22.9436 136.299 23.3991 136.784 23.6955C137.269 23.9919 137.786 24.1786 138.335 24.2554C138.884 24.3322 139.385 24.3707 139.838 24.3707ZM154.444 24.7C156.081 24.7 157.562 24.3158 158.887 23.5473C160.212 22.7789 161.267 21.7086 162.054 20.3363C162.84 18.9641 163.233 17.3778 163.233 15.5775C163.233 13.7771 162.84 12.1908 162.054 10.8186C161.267 9.44638 160.212 8.37056 158.887 7.59113C157.562 6.81171 156.081 6.422 154.444 6.422C152.806 6.422 151.325 6.81171 150 7.59113C148.675 8.37056 147.62 9.44638 146.834 10.8186C146.047 12.1908 145.654 13.7771 145.654 15.5775C145.654 17.3778 146.047 18.9641 146.834 20.3363C147.62 21.7086 148.675 22.7789 150 23.5473C151.325 24.3158 152.806 24.7 154.444 24.7ZM154.444 21.0773C153.539 21.0773 152.715 20.8468 151.972 20.3857C151.228 19.9247 150.636 19.2825 150.194 18.4591C149.753 17.6358 149.532 16.6752 149.532 15.5775C149.532 14.4577 149.753 13.4862 150.194 12.6629C150.636 11.8395 151.228 11.1973 151.972 10.7363C152.715 10.2752 153.539 10.0447 154.444 10.0447C155.348 10.0447 156.172 10.2752 156.916 10.7363C157.659 11.1973 158.251 11.8395 158.693 12.6629C159.135 13.4862 159.355 14.4577 159.355 15.5775C159.355 16.6752 159.135 17.6358 158.693 18.4591C158.251 19.2825 157.659 19.9247 156.916 20.3857C156.172 20.8468 155.348 21.0773 154.444 21.0773ZM168.403 24.3707C168.963 24.3707 169.427 24.1786 169.793 23.7943C170.159 23.4101 170.342 22.9326 170.342 22.3617V14.5565C170.342 13.7661 170.445 13.08 170.649 12.4982C170.854 11.9164 171.123 11.4279 171.457 11.0327C171.791 10.6375 172.157 10.3466 172.556 10.1599C172.954 9.97331 173.347 9.88 173.735 9.88C174.166 9.88 174.548 9.95684 174.882 10.1105L175.028 10.1717C175.323 10.2846 175.646 10.3411 175.997 10.3411C176.428 10.3411 176.827 10.1819 177.193 9.86353C177.559 9.54518 177.742 9.02373 177.742 8.2992C177.742 7.79422 177.521 7.35511 177.08 6.98187C176.638 6.60862 176.094 6.422 175.448 6.422C174.909 6.422 174.371 6.48787 173.832 6.6196C173.294 6.75133 172.787 6.95442 172.313 7.22887C171.839 7.50331 171.414 7.84362 171.037 8.2498C170.822 8.4819 170.629 8.73372 170.459 9.00525L170.342 9.20251V8.76027C170.342 8.24132 170.191 7.79948 169.888 7.43477L169.793 7.32767C169.427 6.94344 168.963 6.75133 168.403 6.75133C167.843 6.75133 167.38 6.94344 167.014 7.32767C166.648 7.71189 166.465 8.18942 166.465 8.76027V22.3617C166.465 22.9326 166.648 23.4101 167.014 23.7943C167.38 24.1786 167.843 24.3707 168.403 24.3707ZM188.471 24.7C189.548 24.7 190.593 24.5189 191.605 24.1566C192.618 23.7943 193.404 23.3717 193.964 22.8887C194.567 22.4056 194.869 21.8677 194.869 21.2749C194.869 20.8358 194.713 20.4516 194.4 20.1223C194.088 19.7929 193.695 19.6283 193.221 19.6283C192.876 19.6283 192.51 19.7271 192.122 19.9247C191.885 20.0564 191.621 20.2156 191.33 20.4022C191.04 20.5888 190.657 20.748 190.183 20.8797C189.709 21.0115 189.074 21.0773 188.277 21.0773C187.415 21.0773 186.602 20.8633 185.837 20.4351C185.072 20.007 184.447 19.3813 183.963 18.5579C183.686 18.0875 183.488 17.5578 183.369 16.9691L183.362 16.9284L194.029 16.9277C194.494 16.9277 194.907 16.7944 195.268 16.5276L195.386 16.4337C195.774 16.1044 195.978 15.6763 196 15.1493C196 13.9637 195.779 12.844 195.337 11.7901C194.896 10.7363 194.298 9.80864 193.544 9.00727C192.79 8.20589 191.923 7.57467 190.943 7.1136C189.962 6.65253 188.923 6.422 187.824 6.422C186.402 6.422 185.056 6.79524 183.785 7.54173C182.514 8.28822 181.485 9.35856 180.699 10.7527C179.913 12.1469 179.519 13.832 179.519 15.808C179.519 17.4986 179.88 19.0135 180.602 20.3528C181.324 21.6921 182.358 22.7514 183.704 23.5309C185.051 24.3103 186.639 24.7 188.471 24.7ZM191.864 13.6344H183.395L183.436 13.4389C183.465 13.3062 183.498 13.1787 183.534 13.0565L183.591 12.8769C183.828 12.1744 184.151 11.6145 184.561 11.1973C184.97 10.7802 185.455 10.4838 186.015 10.3081C186.575 10.1325 187.178 10.0447 187.824 10.0447C188.492 10.0447 189.122 10.1929 189.715 10.4893C190.307 10.7857 190.803 11.1864 191.201 11.6913C191.6 12.1963 191.82 12.7672 191.864 13.4039V13.6344ZM9.85396 17.9545C10.6252 17.4374 11.6748 17.6356 12.1985 18.3971C13.7283 20.6219 16.4075 22.0108 19.3624 22.0108C22.2743 22.0108 24.9199 20.6623 26.4618 18.4894C26.9968 17.7356 28.0493 17.5527 28.8127 18.0809C29.5761 18.6091 29.7614 19.6485 29.2264 20.4023C27.0503 23.4689 23.3712 25.3441 19.3624 25.3441C15.2936 25.3441 11.5665 23.412 9.40572 20.2696C8.88207 19.5081 9.08276 18.4715 9.85396 17.9545ZM4.96998 1C7.10652 1 8.99802 2.3147 9.5435 4.23711C9.79499 5.12345 9.27121 6.04329 8.37359 6.29162C7.47598 6.53996 6.54444 6.02276 6.29295 5.13641C6.16966 4.70192 5.63937 4.33333 4.96998 4.33333C4.30284 4.33333 3.77345 4.69958 3.64809 5.13269C3.39192 6.01772 2.45766 6.53012 1.56137 6.27716C0.665077 6.0242 0.14616 5.10168 0.402335 4.21665C0.955751 2.3047 2.8416 1 4.96998 1Z" fill="#FF5955"/>
<path d="M30.7188 7.3346C32.7696 7.3346 34.4322 5.69269 34.4322 3.6673C34.4322 1.64191 32.7696 0 30.7188 0C28.6679 0 27.0054 1.64191 27.0054 3.6673C27.0054 5.69269 28.6679 7.3346 30.7188 7.3346Z" fill="#FF5955"/>
</svg>
