<?xml version="1.0" standalone="no"?>
<!DOCTYPE svg PUBLIC "-//W3C//DTD SVG 1.0//EN" "http://www.w3.org/TR/2001/REC-SVG-20010904/DTD/svg10.dtd">
<svg xmlns="http://www.w3.org/2000/svg" xmlns:xlink="http://www.w3.org/1999/xlink" id="body_1" width="114" height="36">

<g transform="matrix(0.75 0 0 0.75 0 0)">
	<g transform="matrix(1.3333334 0 0 1.3333334 0 0)">
	</g>
    <path transform="matrix(1.3333334 0 0 1.3333334 0 0)"  d="M53.289062 13.496094C 53.527344 13.726562 53.648438 13.988281 53.648438 14.277344C 53.648438 14.554688 53.539062 14.804688 53.32422 15.023438C 53.121094 15.226562 52.878906 15.332031 52.589844 15.332031C 52.289062 15.332031 52.01172 15.203125 51.765625 14.949219L51.765625 14.949219L45.78125 9.285156L45.78125 14.1875C 45.78125 14.539062 45.67578 14.824219 45.45703 15.039062C 45.253906 15.257812 44.976562 15.367188 44.617188 15.367188C 44.265625 15.367188 43.984375 15.257812 43.773438 15.039062C 43.566406 14.824219 43.464844 14.539062 43.464844 14.1875L43.464844 14.1875L43.464844 3.53125C 43.464844 3.183594 43.566406 2.902344 43.773438 2.699219C 43.984375 2.480469 44.265625 2.371094 44.617188 2.371094C 44.976562 2.371094 45.253906 2.480469 45.45703 2.699219C 45.67578 2.902344 45.78125 3.183594 45.78125 3.53125L45.78125 3.53125L45.78125 8.199219L51.566406 2.714844C 51.777344 2.5 52.023438 2.390625 52.30078 2.390625C 52.578125 2.390625 52.816406 2.5 53.01953 2.714844C 53.234375 2.921875 53.34375 3.164062 53.34375 3.441406C 53.34375 3.71875 53.222656 3.972656 52.98047 4.203125L52.98047 4.203125L48.152344 8.667969L53.289062 13.496094zM60.027344 6.199219C 60.339844 6.175781 60.585938 6.242188 60.76172 6.402344C 60.941406 6.558594 61.03125 6.792969 61.03125 7.109375C 61.03125 7.433594 60.953125 7.675781 60.796875 7.835938C 60.64453 7.992188 60.36328 8.09375 59.953125 8.144531L59.953125 8.144531L59.41797 8.199219C 58.70703 8.269531 58.191406 8.511719 57.851562 8.921875C 57.527344 9.335938 57.367188 9.847656 57.367188 10.464844L57.367188 10.464844L57.367188 14.277344C 57.367188 14.628906 57.26172 14.902344 57.046875 15.09375C 56.828125 15.277344 56.558594 15.367188 56.234375 15.367188C 55.914062 15.367188 55.64453 15.277344 55.429688 15.09375C 55.222656 14.902344 55.121094 14.628906 55.121094 14.277344L55.121094 14.277344L55.121094 7.253906C 55.121094 6.914062 55.222656 6.65625 55.429688 6.472656C 55.64453 6.292969 55.910156 6.199219 56.222656 6.199219C 56.53125 6.199219 56.78125 6.292969 56.972656 6.472656C 57.16797 6.644531 57.26172 6.890625 57.26172 7.21875L57.26172 7.21875L57.26172 7.945312C 57.48828 7.410156 57.82422 7 58.26953 6.710938C 58.71875 6.417969 59.226562 6.253906 59.773438 6.21875zM63.109375 15.367188C 62.789062 15.367188 62.51953 15.277344 62.304688 15.09375C 62.097656 14.902344 61.996094 14.628906 61.996094 14.277344L61.996094 14.277344L61.996094 7.273438C 61.996094 6.921875 62.097656 6.65625 62.304688 6.472656C 62.51953 6.292969 62.789062 6.199219 63.109375 6.199219C 63.433594 6.199219 63.70703 6.292969 63.921875 6.472656C 64.13281 6.65625 64.24219 6.921875 64.24219 7.273438L64.24219 7.273438L64.24219 14.277344C 64.24219 14.628906 64.13281 14.902344 63.921875 15.09375C 63.70703 15.277344 63.433594 15.367188 63.109375 15.367188zM63.109375 4.585938C 62.70703 4.585938 62.382812 4.476562 62.140625 4.257812C 61.902344 4.027344 61.785156 3.730469 61.785156 3.371094C 61.785156 3.007812 61.902344 2.714844 62.140625 2.5C 62.382812 2.28125 62.70703 2.171875 63.109375 2.171875C 63.507812 2.171875 63.82422 2.28125 64.0625 2.5C 64.3125 2.714844 64.44141 3.007812 64.44141 3.371094C 64.44141 3.730469 64.32031 4.027344 64.078125 4.257812C 63.84375 4.476562 63.51953 4.585938 63.109375 4.585938zM69.734375 15.402344C 68.43359 15.402344 67.375 15.144531 66.57422 14.625C 66.19531 14.394531 66.00391 14.066406 66.00391 13.644531C 66.00391 13.402344 66.07031 13.207031 66.19922 13.0625C 66.328125 12.90625 66.49219 12.824219 66.68359 12.824219C 66.88672 12.824219 67.171875 12.921875 67.52734 13.117188C 67.91016 13.296875 68.25781 13.4375 68.56641 13.535156C 68.890625 13.628906 69.30078 13.679688 69.78906 13.679688C 70.29297 13.679688 70.68359 13.59375 70.95703 13.425781C 71.24609 13.253906 71.390625 13.019531 71.390625 12.71875C 71.390625 12.511719 71.328125 12.347656 71.21094 12.226562C 71.10156 12.105469 70.89844 11.996094 70.60156 11.902344C 70.3125 11.792969 69.86719 11.671875 69.26953 11.539062C 68.20703 11.320312 67.4375 11.011719 66.97266 10.613281C 66.515625 10.210938 66.28516 9.660156 66.28516 8.960938C 66.28516 8.425781 66.44141 7.949219 66.75391 7.527344C 67.06641 7.089844 67.49219 6.757812 68.03125 6.527344C 68.578125 6.285156 69.203125 6.164062 69.89844 6.164062C 70.40234 6.164062 70.88672 6.230469 71.35156 6.363281C 71.81641 6.484375 72.23828 6.667969 72.609375 6.910156C 72.99219 7.152344 73.18359 7.472656 73.18359 7.871094C 73.18359 8.113281 73.11719 8.320312 72.984375 8.488281C 72.85547 8.644531 72.69531 8.722656 72.50391 8.722656C 72.37109 8.722656 72.23828 8.699219 72.10547 8.652344C 71.984375 8.589844 71.828125 8.507812 71.640625 8.398438C 71.29297 8.214844 70.99219 8.082031 70.74219 7.996094C 70.49219 7.902344 70.17969 7.851562 69.80859 7.851562C 69.36719 7.851562 69.01172 7.945312 68.75 8.125C 68.49609 8.304688 68.375 8.554688 68.375 8.871094C 68.375 9.171875 68.5 9.402344 68.765625 9.558594C 69.03125 9.714844 69.54297 9.875 70.29297 10.03125C 71.09375 10.199219 71.72656 10.394531 72.17969 10.613281C 72.63672 10.828125 72.95703 11.101562 73.14844 11.429688C 73.35156 11.753906 73.453125 12.171875 73.453125 12.679688C 73.453125 13.503906 73.11328 14.164062 72.42969 14.660156C 71.76172 15.15625 70.859375 15.402344 69.734375 15.402344zM80.41016 6.164062C 82.46875 6.164062 83.5 7.378906 83.5 9.8125L83.5 9.8125L83.5 14.277344C 83.5 14.617188 83.39844 14.882812 83.19141 15.078125C 83 15.269531 82.734375 15.367188 82.38672 15.367188C 82.03906 15.367188 81.765625 15.269531 81.5625 15.078125C 81.35547 14.882812 81.25391 14.617188 81.25391 14.277344L81.25391 14.277344L81.25391 9.8125C 81.25391 9.171875 81.12109 8.707031 80.859375 8.414062C 80.609375 8.113281 80.20703 7.960938 79.65625 7.960938C 79.00781 7.960938 78.48828 8.167969 78.09375 8.578125C 77.71094 8.988281 77.51953 9.539062 77.51953 10.230469L77.51953 10.230469L77.51953 14.277344C 77.51953 14.617188 77.41406 14.882812 77.21484 15.078125C 77.01172 15.269531 76.734375 15.367188 76.38672 15.367188C 76.04297 15.367188 75.765625 15.269531 75.5625 15.078125C 75.36719 14.882812 75.27344 14.617188 75.27344 14.277344L75.27344 14.277344L75.27344 3.421875C 75.27344 3.109375 75.375 2.855469 75.578125 2.660156C 75.796875 2.46875 76.07031 2.371094 76.40234 2.371094C 76.74219 2.371094 77.01172 2.460938 77.21484 2.644531C 77.41406 2.824219 77.51953 3.074219 77.51953 3.386719L77.51953 3.386719L77.51953 7.617188C 77.81641 7.144531 78.21484 6.789062 78.703125 6.546875C 79.20703 6.292969 79.77344 6.164062 80.41016 6.164062zM86.89453 15.367188C 86.57031 15.367188 86.296875 15.277344 86.08594 15.09375C 85.88281 14.902344 85.78125 14.628906 85.78125 14.277344L85.78125 14.277344L85.78125 7.273438C 85.78125 6.921875 85.88281 6.65625 86.08594 6.472656C 86.296875 6.292969 86.57031 6.199219 86.89453 6.199219C 87.21875 6.199219 87.484375 6.292969 87.69922 6.472656C 87.91797 6.65625 88.02344 6.921875 88.02344 7.273438L88.02344 7.273438L88.02344 14.277344C 88.02344 14.628906 87.91797 14.902344 87.69922 15.09375C 87.484375 15.277344 87.21875 15.367188 86.89453 15.367188zM86.89453 4.585938C 86.484375 4.585938 86.16406 4.476562 85.921875 4.257812C 85.68359 4.027344 85.5625 3.730469 85.5625 3.371094C 85.5625 3.007812 85.68359 2.714844 85.921875 2.5C 86.16406 2.28125 86.484375 2.171875 86.89453 2.171875C 87.28906 2.171875 87.60547 2.28125 87.84375 2.5C 88.09766 2.714844 88.22266 3.007812 88.22266 3.371094C 88.22266 3.730469 88.10156 4.027344 87.86328 4.257812C 87.62109 4.476562 87.30078 4.585938 86.89453 4.585938zM53.054688 20.523438C 53.390625 20.523438 53.65625 20.632812 53.847656 20.847656C 54.046875 21.054688 54.148438 21.332031 54.148438 21.683594L54.148438 21.683594L54.148438 32.339844C 54.148438 32.691406 54.046875 32.972656 53.847656 33.191406C 53.64453 33.410156 53.378906 33.51953 53.054688 33.51953C 52.671875 33.51953 52.378906 33.378906 52.17578 33.101562L52.17578 33.101562L45.621094 24.480469L45.621094 32.339844C 45.621094 32.691406 45.523438 32.972656 45.33203 33.191406C 45.140625 33.410156 44.878906 33.51953 44.54297 33.51953C 44.20703 33.51953 43.945312 33.410156 43.753906 33.191406C 43.5625 32.972656 43.464844 32.691406 43.464844 32.339844L43.464844 32.339844L43.464844 21.683594C 43.464844 21.332031 43.566406 21.054688 43.773438 20.847656C 43.972656 20.632812 44.242188 20.523438 44.578125 20.523438C 44.953125 20.523438 45.234375 20.660156 45.441406 20.941406L45.441406 20.941406L51.976562 29.523438L51.976562 21.683594C 51.976562 21.332031 52.07422 21.054688 52.265625 20.847656C 52.46875 20.632812 52.734375 20.523438 53.054688 20.523438zM63.63672 30.976562C 63.839844 30.976562 64 31.054688 64.11719 31.214844C 64.25 31.371094 64.31641 31.582031 64.31641 31.847656C 64.31641 32.222656 64.09375 32.539062 63.652344 32.79297C 63.246094 33.023438 62.785156 33.210938 62.26953 33.35547C 61.757812 33.48828 61.265625 33.554688 60.796875 33.554688C 59.38672 33.554688 58.265625 33.14453 57.4375 32.320312C 56.61328 31.496094 56.203125 30.371094 56.203125 28.945312C 56.203125 28.035156 56.378906 27.230469 56.73828 26.53125C 57.097656 25.828125 57.597656 25.285156 58.246094 24.898438C 58.90625 24.507812 59.64453 24.316406 60.476562 24.316406C 61.265625 24.316406 61.94922 24.492188 62.539062 24.84375C 63.125 25.191406 63.58203 25.6875 63.90625 26.332031C 64.22656 26.972656 64.38672 27.726562 64.38672 28.597656C 64.38672 29.121094 64.16016 29.378906 63.70703 29.378906L63.70703 29.378906L58.410156 29.378906C 58.476562 30.214844 58.710938 30.832031 59.109375 31.230469C 59.503906 31.617188 60.078125 31.8125 60.83203 31.8125C 61.214844 31.8125 61.55078 31.765625 61.835938 31.667969C 62.13672 31.570312 62.472656 31.4375 62.847656 31.269531C 63.203125 31.074219 63.464844 30.976562 63.63672 30.976562zM60.527344 25.914062C 59.91797 25.914062 59.42578 26.105469 59.054688 26.492188C 58.695312 26.882812 58.476562 27.4375 58.410156 28.164062L58.410156 28.164062L62.46875 28.164062C 62.445312 27.425781 62.26172 26.871094 61.92578 26.492188C 61.59375 26.105469 61.125 25.914062 60.527344 25.914062zM70.66406 31.832031C 71.26172 31.867188 71.5625 32.140625 71.5625 32.648438C 71.5625 32.9375 71.44141 33.160156 71.203125 33.320312C 70.97266 33.464844 70.64844 33.523438 70.21484 33.5L70.21484 33.5L69.72656 33.464844C 67.71875 33.320312 66.71094 32.23047 66.71094 30.195312L66.71094 30.195312L66.71094 26.238281L65.81641 26.238281C 65.49219 26.238281 65.23828 26.167969 65.0625 26.023438C 64.89453 25.875 64.80859 25.664062 64.80859 25.386719C 64.80859 25.109375 64.89453 24.898438 65.0625 24.75C 65.23828 24.605469 65.49219 24.535156 65.81641 24.535156L65.81641 24.535156L66.71094 24.535156L66.71094 22.863281C 66.71094 22.535156 66.81641 22.277344 67.01953 22.082031C 67.22266 21.890625 67.49609 21.792969 67.84375 21.792969C 68.17969 21.792969 68.44922 21.890625 68.65234 22.082031C 68.85547 22.277344 68.95703 22.535156 68.95703 22.863281L68.95703 22.863281L68.95703 24.535156L70.484375 24.535156C 70.80469 24.535156 71.05078 24.605469 71.21875 24.75C 71.39844 24.898438 71.49219 25.109375 71.49219 25.386719C 71.49219 25.664062 71.39844 25.875 71.21875 26.023438C 71.05078 26.167969 70.80469 26.238281 70.484375 26.238281L70.484375 26.238281L68.95703 26.238281L68.95703 30.359375C 68.95703 31.253906 69.36719 31.734375 70.17969 31.792969zM84.74219 25.023438C 84.828125 24.804688 84.94531 24.644531 85.10156 24.535156C 85.265625 24.425781 85.44922 24.371094 85.640625 24.371094C 85.91797 24.371094 86.16406 24.46875 86.375 24.660156C 86.60156 24.84375 86.71875 25.070312 86.71875 25.351562C 86.71875 25.507812 86.6875 25.648438 86.62891 25.769531L86.62891 25.769531L83.66406 32.79297C 83.57031 33.023438 83.41797 33.19922 83.21484 33.320312C 83.02344 33.441406 82.80859 33.5 82.57031 33.5C 82.33984 33.5 82.125 33.441406 81.921875 33.320312C 81.734375 33.19922 81.58984 33.023438 81.49219 32.79297L81.49219 32.79297L79.35547 27.601562L77.29297 32.79297C 77.19531 33.023438 77.04297 33.19922 76.83984 33.320312C 76.64844 33.441406 76.43359 33.5 76.19531 33.5C 75.96875 33.5 75.75 33.441406 75.546875 33.320312C 75.34375 33.19922 75.19141 33.023438 75.10156 32.79297L75.10156 32.79297L72.15234 25.769531C 72.09375 25.609375 72.0625 25.476562 72.0625 25.367188C 72.0625 25.089844 72.18359 24.855469 72.421875 24.660156C 72.66406 24.453125 72.921875 24.351562 73.21094 24.351562C 73.41797 24.351562 73.60156 24.40625 73.76953 24.515625C 73.9375 24.625 74.0625 24.789062 74.14453 25.003906L74.14453 25.003906L76.265625 30.542969L78.44141 25.058594C 78.53125 24.832031 78.671875 24.660156 78.85156 24.550781C 79.03125 24.429688 79.23047 24.371094 79.44531 24.371094C 79.65625 24.371094 79.85547 24.429688 80.03516 24.550781C 80.21875 24.660156 80.35547 24.832031 80.44922 25.058594L80.44922 25.058594L82.640625 30.558594zM92.11719 33.554688C 91.21875 33.554688 90.42969 33.367188 89.74609 32.992188C 89.07422 32.617188 88.55469 32.078125 88.18359 31.375C 87.8125 30.675781 87.625 29.859375 87.625 28.925781C 87.625 27.996094 87.8125 27.183594 88.18359 26.492188C 88.55469 25.792969 89.07422 25.253906 89.74609 24.878906C 90.42969 24.503906 91.21875 24.316406 92.11719 24.316406C 93.01172 24.316406 93.80078 24.503906 94.46875 24.878906C 95.15234 25.253906 95.671875 25.792969 96.03125 26.492188C 96.40234 27.183594 96.58594 27.996094 96.58594 28.925781C 96.58594 29.859375 96.40234 30.675781 96.03125 31.375C 95.671875 32.078125 95.15234 32.617188 94.46875 32.992188C 93.80078 33.367188 93.01172 33.554688 92.11719 33.554688zM92.09766 31.792969C 92.83203 31.792969 93.38672 31.550781 93.76953 31.066406C 94.14844 30.585938 94.34375 29.871094 94.34375 28.925781C 94.34375 27.996094 94.14844 27.285156 93.76953 26.800781C 93.38672 26.304688 92.83594 26.058594 92.11719 26.058594C 91.39844 26.058594 90.83984 26.304688 90.44531 26.800781C 90.0625 27.285156 89.87109 27.996094 89.87109 28.925781C 89.87109 29.871094 90.0625 30.585938 90.44531 31.066406C 90.828125 31.550781 91.37891 31.792969 92.09766 31.792969zM103.34375 24.351562C 103.65625 24.328125 103.90234 24.394531 104.08203 24.550781C 104.25781 24.710938 104.34766 24.945312 104.34766 25.257812C 104.34766 25.585938 104.26953 25.828125 104.11328 25.984375C 103.96094 26.144531 103.67969 26.246094 103.26953 26.292969L103.26953 26.292969L102.734375 26.347656C 102.02734 26.421875 101.50781 26.664062 101.171875 27.074219C 100.84766 27.484375 100.6875 28 100.6875 28.617188L100.6875 28.617188L100.6875 32.429688C 100.6875 32.78125 100.578125 33.05078 100.36328 33.246094C 100.14844 33.429688 99.87891 33.51953 99.55469 33.51953C 99.23047 33.51953 98.96094 33.429688 98.74609 33.246094C 98.54297 33.05078 98.44141 32.78125 98.44141 32.429688L98.44141 32.429688L98.44141 25.40625C 98.44141 25.066406 98.54297 24.804688 98.74609 24.625C 98.96094 24.441406 99.22656 24.351562 99.53906 24.351562C 99.84766 24.351562 100.09766 24.441406 100.29297 24.625C 100.484375 24.792969 100.578125 25.042969 100.578125 25.367188L100.578125 25.367188L100.578125 26.09375C 100.80469 25.5625 101.140625 25.152344 101.58594 24.859375C 102.03906 24.570312 102.54297 24.40625 103.08984 24.371094zM113.125 31.648438C 113.36719 31.878906 113.48828 32.140625 113.48828 32.429688C 113.48828 32.70703 113.38672 32.95703 113.17969 33.171875C 112.99219 33.390625 112.765625 33.5 112.5 33.5C 112.234375 33.5 111.98828 33.390625 111.765625 33.171875L111.765625 33.171875L107.55859 29.324219L107.55859 32.429688C 107.55859 32.78125 107.453125 33.046875 107.23828 33.226562C 107.02344 33.410156 106.75391 33.5 106.42969 33.5C 106.109375 33.5 105.83594 33.410156 105.62109 33.226562C 105.41797 33.046875 105.31641 32.78125 105.31641 32.429688L105.31641 32.429688L105.31641 21.59375C 105.31641 21.242188 105.41797 20.976562 105.62109 20.792969C 105.83594 20.613281 106.109375 20.523438 106.42969 20.523438C 106.75391 20.523438 107.02344 20.613281 107.23828 20.792969C 107.453125 20.976562 107.55859 21.242188 107.55859 21.59375L107.55859 21.59375L107.55859 28.417969L111.40625 24.695312C 111.62109 24.480469 111.86719 24.371094 112.140625 24.371094C 112.41406 24.371094 112.65625 24.472656 112.859375 24.679688C 113.0625 24.882812 113.16406 25.125 113.16406 25.40625C 113.16406 25.683594 113.046875 25.9375 112.82422 26.167969L112.82422 26.167969L110.00391 28.816406z" stroke="none" fill="#14746F" fill-rule="nonzero" />
	<g transform="matrix(1.3333334 0 0 1.3333334 0 0)">
	</g>
    <path transform="matrix(1.3333334 0 0 1.3333334 0 0)"  d="M7.695312 30.125C 7.695312 30.125 -12.246094 13.980469 12.542969 0C 12.542969 0 14.042969 2.902344 15.515625 6.414062C 17.09375 10.183594 14.8125 13.625 11.96875 21.433594C 9.433594 25.074219 8.574219 30.125 8.574219 30.125C 8.574219 30.125 4.378906 21.433594 8.316406 11.492188C 4.945312 18.023438 5.367188 24.285156 7.695312 30.125z" stroke="none" fill="#14746F" fill-rule="nonzero" />
	<g transform="matrix(1.3333334 0 0 1.3333334 0 0)">
	</g>
    <path transform="matrix(1.3333334 0 0 1.3333334 0 0)"  d="M8.566406 30.378906C 8.566406 30.378906 5.96875 18.71875 11.507812 12.050781C 16.117188 6.5 18.804688 5.707031 34.132812 5.089844C 34.132812 5.089844 31.847656 7.007812 30.347656 12.398438C 27.21875 23.621094 20.175781 23.0625 15.855469 27.019531C 14.480469 27.300781 10.789062 29.550781 9.003906 31.546875C 9.003906 31.546875 11.277344 22.175781 19.4375 14.136719C 14.152344 18.882812 10.828125 22.5625 8.566406 30.378906z" stroke="none" fill="#95BA02" fill-rule="nonzero" />
	<g transform="matrix(1.3333334 0 0 1.3333334 0 0)">
	</g>
    <path transform="matrix(1.3333334 0 0 1.3333334 0 0)"  d="M9.023438 31.519531C 9.023438 31.519531 11.640625 28.019531 13.707031 25.789062C 17.617188 21.5625 21.550781 18.707031 30.371094 19.832031C 33.257812 20.199219 36.226562 21.046875 37.6875 19.738281C 37.6875 19.738281 36.847656 23.214844 35.722656 26.007812C 32.55078 33.91797 20.816406 40.32422 9.023438 32.316406C 9.023438 32.316406 17.09375 32.316406 27.140625 26.785156C 27.140625 26.785156 18.734375 30.558594 9.023438 31.519531z" stroke="none" fill="#14746F" fill-rule="nonzero" />
</g>
</svg>